<mxfile host="65bd71144e">
    <diagram id="ofAucVc412YJ4ARiUWQb" name="Page-1">
        <mxGraphModel dx="2380" dy="928" grid="0" gridSize="10" guides="1" tooltips="1" connect="1" arrows="1" fold="1" page="1" pageScale="1" pageWidth="850" pageHeight="1100" background="#ffffff" math="0" shadow="0">
            <root>
                <mxCell id="0"/>
                <mxCell id="1" parent="0"/>
                <mxCell id="4" value="" style="shape=image;verticalLabelPosition=bottom;labelBackgroundColor=#ffffff;verticalAlign=top;aspect=fixed;imageAspect=0;image=data:image/png,iVBORw0KGgoAAAANSUhEUgAAALUAAACxCAYAAACCwvy/AAAAAXNSR0IArs4c6QAAAARnQU1BAACxjwv8YQUAAAAJcEhZcwAADsMAAA7DAcdvqGQAACa1SURBVHhe7Z15lFxXfee/tVf1rlavaknW0losS7YlywvGeBfYBtsCE0JC4AAzHMgMJGeSOZOTk8xyOHMyfyQHkowThjCQBCYmYDAYxzZCgLyAZCTLkm3tUrfWVm/qvfZ69d78vreqpe5WVXVVdVVXvVf1sUvd9aq66t17v/d3f7/fve8+29jYmIEqC8JgDcrDSPyTeJ7EJv/NRL1nBjZ78j38f/Zbq+RJVdQ5oMdFkqwt3QZdfjH05HOS/Dkt8GvMVeqsF5WoE78kf1Dcdhvs/MVuqOd2x9zPqJKJqqjTQHEqEetAnD/jPJgUbfL1OfosHBR2UsfqJ5+LsB0idpvDUCKffr3K9VRFPQMKVYsaiMtDFzEXTbQLRQRtFwvvcIvQnWLVHcnjVRQVKeqEtZV/5H+KV9dsSSGbtyocbsApIlc+urLilWvNK0rUhqiZ7oQurkRcExHHpgVuHShkuyvhh9OC06LTR68kKkLUtMAUsk4hawlRVwK02krgImqHMyH0SsDSomagp8USQR6FTCtdqVDUNnk4XbTg1ha3JUVNixyjjyxWuZKFnAplvSlu8b+tmkWxlKhpmWMRZi+SB6pkxOm2qwCTVtxKSL81N4ngT8QcsiE8VRV0LmhRHRG/ruouMbFkDftmWkutxCx+siauhhbhgcTxKnkibojTQ6udyJrYTOyXmNJSKzdDfOZISAQdlgNVQS8cqUPWZTSYdOHEWJgV04k6HrXJcCliDkk7VEhqbjFhYE1xs46jYd2UeXzTiJqWIxLQEQ3F5ffkwSpFgylQZbmlzuMxcym77EVNSxGLSEATkCHRgjOA5Q4NSERcEmW1TZIeLVtRU7z0naMhRuc8kDhepQRI3SurLcI2Q5akLEWtBM0JlBAXGiUPVik5bIuIn0FkeY+YZSfq6QkU5W5o1enAcoNijkrbsI3YVuVIWYmawUkswqGuvIe3Kok2YoakHIPIshE1sxvRoETa0aqgzQLdkCjTq9Jm5eSOlFzUrAxWCn21SlkSaiWYEeGEDS12uQi7pKJmFJ2w0FXrbHbUTKSarCl9W5ZM1GoRkgQbDDqqWAOuwYmKr13qfHZJRM0rUaIiaLVuo4qliCeFXcq1I4suarW2QApezT9bFwb7MRE25xpKwaKKmoKOiXXWxEpXZwitDa86YmakFLnsRRM1Awiu4eDC9CqVAbNZnERb7OBxUUStBC3DkVrMX6WiUKNzyC4aSB5YBIou6uksR1XQlYsWjatFadTCYlDUy7nYO5XLUWlZjmvbJOUOK63UObEiwcvFnB6b2oekmBRN1GwbzhTS7bB8UOhwiv8YR9g/iamJUUyOjyIcnEIkHEJInutc0JIlDUvbsPXex5LPLAavg/QCLre9qFszFE3U3EQmFiyvNQEFhVenikUdGexD77HDuHDqbUwMXkRcChzXNHnEROjJGbYs5/+ltlDftASP/7s/RWvniuRRiyFidvtscLiKt+dIUUTNNI6Keq04ikpLBAIBHD/wCg698gLGr/SJofbKkOpICHgOuVyVzb/n+2++ewcefOqzyaPWg96Zp7Z4O0UVXNRsGOYnrTa5EpWOOnXlMg6/vgtH9r6MSDQCl8snDVTYWFuPa2jtugHv/53/iPblq5NHrQf7ureeu7QWXtgFFTUNlfKjRdRWIRIOY6T/Ak6//QbeevVFaBL1utw1yVeLgy7uyl0f+C3c8fBOOJ2u5FHr4ZDA0e0tvH9dUFEzdWcVQYsjgNHBSzjx5ms4/uarGLvSX3QxTxMXa93WtQqP/N6XxLdemTxqTVziX7s8hVV1wcZOLmBR098WgDO7Z949gN3f+zre3PMCpsbHFk3QxOFwYvBiD86feAclXBe0KPAKGu4TXkgKYqnpdqirVgp8cqVi3+4f4dCe5xEJhZTzV4otuOiC1DUuwc33PIblazehXfxsl9eXdSbFTHCDSlrsQgWOBRE1J1jUNgYW4Jm//q8YOH9ChOwoiZjnQnFr0RA83hqs23YfbrvvUbQuXwu7TaePZBnoX3t8hXEcFiRqWmh19bdajZU8aEKYsfGPjeClb38FF8+elODMnXylfDB0GQllKORjxdotuP3hj6Br3Rb4vO6y6HwLRorg9oq4ed+aBZZnYaLmYn8uCDdx+s4wdAkI+/CLH3wTF08fkSHQWfYiYSCpxcJYsX4r7nzoCXR1b4HXK6bO5BTKDclb1LRumojZ7NmO8eEB7PnRt9B77JCaQDGT1aPVdot5u+mOB3HTXfejbdmqgufNFxu3uCDcCH4hzbAgUXOTczPPGoYCfrHQ38Dpt/fJMw575hME3RL5F+0ru3HPhz4hrslGEbZ5b6zIyRhPLVch5K/qvFtR7fVg5mlwhwtv7PqhCPo38oQTAOa0cMoyy7kPXuzFrmeexqXeE8lXzEnirhALG/3zakkGiKbOdsj4duLN17H/58+qp2YPtHj+fPgnxvCDv/8yxoaHkq+YE26SQ6OZLzmLmoLmPtFmZnzwIl7+zlfh8dWbXtAzSYjbjn/6X1/C+JXB5FFzojwBii0PchY1Zw7Nm76zIRQMYtd3/17KYL1JjGlYtp8+83diucflmTk7LS/cZSIiH3ISNffrUHvd5T8ylBRdgqpjb76GoYs9KnVnVVi2gfMncfhXL0PTzDvNq+4Xn8fV6DmJmvul0d8xJzYM9V/A8QN7VENbye2YC8tGA3Ti4Ou41COBo0nLSo+Ad1/LlaxFzUyHcjtMaqVjsSjOHN6L4b5z8sy6gp6GvvXEyBBOHf41QoGp5FHzYYgRzdVaZy1q+tJmXrB0ZagfZ97Zr1JGVrbS07CMdEN6jx7Elcvnk0fNBzVH/zoXshI1hRBnbzGplea08sUThzB8+aw0dHlPTDDgl+pWD4edFZ5/pVPYU2NDOC2dORIx7x4VKjnBCsmSeUWtKllcDzOv7wiFwspKO8pwodI0qo7lYRMRN3gNrFyq4/Y1Bla1ikFZQAaVZe49+iZCwUDyiPlgHMd7Zmab4cvCUidTePkbjJIzdP4U+nqPqrUd5QSNjyZ1y5+NNQZuXKbj3o0GnrxNxyfeo+PRW3R8ZLuBdR26el8+sMxjQ5ekDk4nj5gQ1pO6DUd2IszK/Yib+YoW8Svfev1ljsXJA6UnJgKNifWhRd52g47Ht8bx4dsNPH6rjodu0rG+w0ANF90lxf74toUJm1e7v/vGL1RdmBXlKWQpw3lFTSut1syYlGgggHPHDsDJ7YFKCOd6whL0cAjdukLHb98Vx6fv1fGICHn7KgNrW3U0pLpiTN6/RIS9YwvQ1ZyfsO12O84e26/qwsxku+f1vKLmdgdm5oxE/yxmKTIeFDCFHBWrvEpE+7si5D97QsNTdxu4eYWB1noDteLmz7dalGe+rEnHh7YCHY35+dhaNJKsC/PCbaCzIWN1Muth6pvaO1w4emDPorge01kL/rTbDLidBpYtMfDU9oSQ//0DOm65wYDHJa/LG3M9Jb6dweMj4mezM+S6LsLpqZGA8YD8Ur7B8nyouRJW8jxkFHVsASulygEtHMCFYweLennWdNbC5RDLWye+b6eBhzcb+P0H4vjCg3Hc0W2gzitvLERVymesE3/7wZvkM8WbysUtZB1cEDdMN/G0OeE2HPORUdRmnmwhw/2X1GVPhYbGgsGeU2qvoykR7D0kQn7qDh0fFxfjvRsMNNcn31xouyCft0V88h1bdLgk7svFFZmaHEVgfCT5zJwwYJxvHX9aUdMpN/VFAHaHiPo87AW00hQyrWOXuBUPbIxj5+06dm438JgEe3ev09VxF2s0iyFyQcjHbxVX5sO3xeEVdyZbYTskWB4z+ZJUln2+Gca0olZ5wSK3TVGx2TE22L/gS5uYbWCwVyvD/cObdHz6fXF8XAK9+zYZ2NwlQpYAjsIqRV3dtNxQ6UCOGNnAbR+4S6v09OQRczLfIqe01WHqADHJ8MVTcEiwmCvTWQv6yXd36/iDhzX88YfieGCLgTVtBpq8OtzSVxY/nzIbfv8WEfYHb82usWTsxdjQZao7ecScGHFOmyefpCClqE3vehAJCAL+ieST9FDAfNhs4jqIiL0uAzcv1/G5e+P4zx+M44PiXnQtlaFb3mTLI2tRTHguTAfespKdL66yLpmSIgwWJ0YGks/Mi2qzDCv3UopaCTpD5ZgBXv2hRTIHiWqdhU9E26zj1hUGdoqP+sWH4/joewx0LxOBc5TOY5H6YuOWwehecYe2iZ9NYaeDacDgxFCygc0LT18tsEvDdaJmL+D61Uw93gxwN39uVJMJt4iWed+P36njye06Ni8H6n3yAgM9M5VfztUnwr7/JgP1TB9mIBzwIx41/12l2LTpNJpC1BZwPbKEAdaNnQYaaxL+qamRBmaH5OROJti+Vrg+U4k6TZbpelGrNyefVABmH5FyhZvfRK1gqZleTdM3U4o6l5mqKuZClwaORsy/RS2NUVbux9U3Vpj1qmJOmKJMtQZmjqXO7bKZKlVKiaFJJJRCrtdZalRdjyomQcV/84maqk/nfFepUm6kSz1f71NXLXV6uL3s9KOYOUB+9szvqpIWpdk5wr4q6lQvmhmn2401m+9COMj95BYOV+i9tHcAf/P9U/jaj3qw+8Aw/JHCD2sxw4a3TvvVd3zle6fUd07wKqwC3EQzrkXRvnIjmpa2JY+Yn1RG+Oqm64wirXBngFk4XPjV89/GWz//PuJ273XrNmrdBv7o0Tic8yzku3wlim/u6sFkIAafJ7HCLSIq72quwSd3rMCS+sIsb52STvLcq304dmECHte1k4pqOj79yAas73LNjexnI8J/epcdw1OzC6qMVTyMVZtuw87P/7n5J5pmoG7g75l9n5jZ7ofVMh8SILx323rcvjwGt8PIa5lzIKzhuV9dRDSmXxU0oej6RoN4fm8/9EKschJB7t4/eJ2giUtckBf3nsPoRO5XbbDMDpuBLa1RfOT+m8WMLWwpbrlh6NfX/Ryf2jp92JCiGYErwBtfxV3LdWzrjMLjzFHYUh29A0FMBlOLieJ79+wEJqYWbgzCEQP7T45eJ2hCKxTR4jjTP5Xwt7MkIWjg5g4N9/E25289DdvIGVU3liGF+zFb1FbKfNhF1Kd/Bnt4AA4p5ra2CLZ1JISdS+zgD2lKSJmuRr88Ekz+lj9R6TcxcTPSEdMM8a3nueRjBiyj027g1o4Y7lQdOtHUthPPqrqxCqnmVeZY6oVbnHKBIrRffkVK6OET+Jw2vLfbwJ1rDbVHXbZFrfM5RRyZRdDetPA9ReZbiOQUk1vrzc51YNn4uHm5gfu6NdS6EoW12cT3Hz0Km2aRO7kKqh3ntKV1uuxcon5pPHlMj9cibPrVO2421B51WjbrpOUtazrrRVBi9dP0go5mL1qaF355lMdrw+ZVjclns+F3uxxObFix9LoGTAUzNRuWGdi5XYd3bgyrRYBQYTJCZUGK+rgmannRUjlq3hfYlkJsMlw9ttVQV3xnMwrXitgeu7Nd+boUF4c7PthVPC47PvOBtYW5kEA+47fuW44ltS45r8Sm6XzwO9mp3rOpCa2pNT8LnslNXQZ+7+44+/H18KDVgsU51X8tpScVGJosQOOUCw4XbK/+D9gu7Us0pOCuc8DXlBznRTj7TgJ3KHckcSgt8t7ePj9+c2JUfOxEz2+ud4rQWtHZ6lGXeRUCNs64P4ZfHx1B/2hEBXoNPokH1jdhw8qGROSXCSnma8dtapPJaULjMRm0ksGSWC1j6ToY7/+b65VgYjx1NjjEvZzmqqhpFcJWErXNDtvgO8DP/1AMU2KTulmizhWpM45koahoXDoBfeBr1VhY2AoRCRx5JTs3ilQjSp5NM1PURjwA3PVnMNbuSBTGIswV9Sz3w1JIo+ltm4HVj4k6/MmDC0DqhwafIuOWCMUSNOFn8zu4s5MMEoVpG9ZB1/tg3HCvpQSdiiy8SnNj3PElGN1PSvQ0ZfnGTAnLzLKvuB/G3X8iblnxtmArF666H9wWIeK3mrlOQPfRdnYP3Ge/K4HfWPJoZRCctCGy4mPA5qfkWTHHl9Lh8nGq/Jp9trylJnQbjLUPQd/6RcTdrQmVVwCGxBLGbf8Bxi2/Kx6MNQWdiooQtUJ0rDsb5QfTfFaaOk0DYwpHLeLOFg7Dlpb01bmIJFdFnTKnaSkMsdJLoLuzSPZaAoq6Brpnqfxu7ZFpbtr9mqW2uKi5GxO8DdBrV8DgdHEFYHiaYHhbEmWvIK5Z6uRPSyNdOl63PlFYi/vVhr1GyroORonvdVMKKsenFmxGHFHvWsTt3FvMwkiH1eURdt8oTyrCXM1itqgroPxGk7gftVxcbN2cNccgw9cGtN+oOrLVmbuGZ5ZPbf1gUbDZEe54TDRt7tuvZSaOSPP9MLioqwKZpXGuDrM6NkNHrGUb4r6VySPWw3DWIdL+gCprJTJD1DYxYnPsuFWxORHo+qQYtAKsCSk34gH4Wz4M1LYkD1ibVN7FDBWLJ2arjJ7NFJfWeS/iNRuTR6yD7umEtvpJ+SX3i3TNiJ2LLucIe7ZpzrALvdVgDw9s/GLCWlshvccyxCfhX/X7ajFEJYRH6ZjlftgrbDegeM0NCHc+JYKwgFUzIog1P4B4yxYZcHl3+spA4v7rqBAnOjWG3YlI16PQ6sUNMXPqS85d83YhtPKjFZfxSCQ3Zhvjq6LmcKyc7goy1ixq3LcMwWU7oTkbzSlsLlxy1sqII2WoXZU8WDlc1e0MZllqbivgqIC03iykzFrzdrHYHxbLLVGHmfxrOVfuPxRt24FYx32Aw1lZvjQLm6LAc0QtDeqonGCRqDpxuhAVNyTa+n5zTcrofsSa7kToht+G4ay84NDhUDbpOmb71PIOW6VZakGVWKx0YMMXxOo9AWgT5W2xeW5yjlr9HQjc9F+kdT0VJ2iFqHdeUfMNqd5UKdj0GPyb/gCRZR8TV0Qqohx9bPGhDeiItD2Kqa1fTh6sTGzM1qUQ7GxLLTBFkipNUilQ2IHuzyC44lOIl1vwKOeiO2uk0+1EcMMXkwcrF8o5lRG+euHtNLzlAPeojme/F6HlUBUSj8E58iZ8l38CZ6BXKrD0s62aux3h5U8i1vo+8aG9lelyJOHVLm6vDQ5XVpZa3lTBlpqoanK4oLXdjYBnK6LhxJZjpYLfHQnoCDo3Idr+UMULmnCZUrrd064XtdRWJbsf0yjRSEXEdSfCYxFMDUQQDS6+K8JdmqYGoghPaPK7S3W2She0gqJOEwCmlK9DHPCqsBMdnPKmpTQ0A6HRGCb7I4iFJVjjsSJY7+nP5XfwuwL9YXGl5VhlriJNi4r90vTulNJlVJnuDyodCix4JYrAlRi0iI54VE9767Nc4Gfws/iZ/Gx+B7+ryvXQ7Zi5d95cUopa+StVS52RuIgvKOLzD0UREtcgHIgjKg8l9JgIPcMOpXyN7+F7+Td80L3gZ/Ez+dlV0kN9ZrqgJa107QvfR7xi0MTXjo7HEBoTCysuSmhcU0LnjqMpH+o1LfFe+Rs+YiXw180KLXUmTyKtqJ1MlVRdkJyhy0BLq9EC+1M/+BrfU3Uv8kA0mcn1IGlFzdRepVzdVcU8KNdjnnX/GWXr9FRNdZXywuGeP4mRWdRZfIAVUWUWzyAUiiEcjKBcbpoa0ySgDMfUuVVqdoqanI/rpsnnokVsiIYqI4hhRB0WIV/um8TZMxM4dXoS6yIv4Z7WvfDytm0lVJJu2HFw4ja8qT2JNavr0L1hCdra6lHf6E7mtpNvtDAOF+Cpnd8nnlfUzJ+GuRm7RSuNqUtd+uzlfj8O/6YPx49Pouf0IC70jGJ8CvjY9vP4/PsOosbNm4SWSNSi2KhmxzP7b8LXXrsRDV4dqze24IZVLdi4qQF33nsDOttrlb9pZXHPvbdLOuYVNa1AlAucLHYtJ/XJadbeUyN44Sc9OHRoFKP9I5iajKmbh/Im/JGYDfeuu4I/3rEXDb4I/yrxx4uNtEEo5sT/ee02PH94Jbxu3gcSiOs21NQ40LqiFVu3NuMDH1iFDZtbp//EUjicdrhrDdVm85GVqHUxUpGANWqJdeJw2THcF8SP//k0nn35FOLhkChEU5ZuZp1RGCuaQ/ifT+xBRyNv1VwiUcswORHy4i933Y1f9yyFJ3kHW8Jz1DlX43DC7vHiww9140OfXIuV3Y1qgscq4nb5bFnHePM6KOp2yOJrsqeYHZZjYiSKZ756DH/xqTdwcu8ImmxxOKClvDSIzy+O+jASqCmtOOS7J0Iu9I7UzRI04Tny3FmGJXYdvQfH8dXPH8Q//8U7GLocVGU2OyyjfZ4Jl5lkp1R5l31OZZoJjjYU857nzuPpPzqIt38xBF+jAy63HY2+2uS7UjMVsuOdS8tg0PEuEaz53uEW9I1m3v6gwVujysSyHds7im/86dvY88PzGB+OqDowKw5vbnvSZCVqZQ3EQc/GSS8nOIEUDWt4Z98Qnv3fx/Gzb59DOKTB6bFLmaSiJEr0Ot0Zb6hP//XA+Q7o6RbvLgJ2m47fnOtSFjkTdimHDNCqbCwjy/qz75zDd79yDG+9MoigP6bqxEwwkJ/rFs5HVqImaqmf0zy9ncNuX+8UXvhGL37y9R6cOzKREPOcRqWgva70t8twS5kPX2jEqYF2EVcJrLWMEJfHG7HnZJs6l3S4xaf2OtxK0NOwrCxz3+kp/OQfzkg9nMElqZOShQZ5wF0r5uvMc8le1FIRtNRmWL0Xj+s4+OoAnnv6FA69MoBYWPxmCQ5T4XE6Uev2Jp+lhtmQbx3YLj8XX9QuVww/fvtGxLTMFd/g9cmok3oVGsvOCaQje4fx3N+exP6f96s6KneotYTmcuuFOUmUfk25r95jXv315y/hpW/2YOhiQHp65kpxSATS4PEpcaeDluK1Y/XYf7Zb3r+IF2/qGs6PtOP/vbESrnnqnaONM4NJYx2wLob6gnj5W73Y/cw5xKKlixOygVqTAShnchI1rTXvLJqLf7OYaDEdL/5jjzTaWUQjumrIbPKatR4PfBlcENJcq+G/vXArwvF6ebYYbpihLtb48u4HUD/PLWq8ThdqXN55y6riCKkTrufe872L+LG4JLEyXbt9TWu5iy0nUROmVlzeHJ2cIsNyhwMavv+3J/CrH/XBW5/b+bnEHPhcnnkrcCrkxl/vvhmRGD+/mMI2QO/g669tx6kL85el0Vcjj9xuzsQ6Orh7AM8+fQL+CQkgc9dOUaEvTa3lQ86iJg63kfcXFho2xuhQBD/4u5N457VheBvyO7GO+kZl8TLBHPHrpzvxw0ObEIxyXCyGsA3lP+86ug4vvrNCOlzycBo80iGX+Dh65I6nxqHq7Jm/OoLBS8xpJ18oMRxNXN78Tyavv6SQXN7Sd20GEkOXQ3jxW2dwbO+IaqR8cYo4WurqMyYGWO5Q1IF/PdCN7x24CRNB6QSFzF8bcYRlFHj+7Q341q9vlI7jUmVMB8+1raER9d7MgW4mWGfnjzJLdBoXe/wZv2+xcDIvvYDzmHeaPB2lXhNCgY0NR/DSP/XgxP4R1T3z8b9mEtd1nB0ZxFgo8yaRcdGxy6Fj25pxfO49h9HdNoBYTCx3vsOXdAyHU0ffWBP+cd9m7OvpkM7jnDeVtcRXi9VL2yV4XZgS1cSMuDtrtjThQ5/rRmunr2QzqFyJ567JLhZKx4JETSOl1oSUoAK4RHT3v5zHgZ/1F0TQ02ii2HOjQ/MKm41Oq2bENTx1Wx923noCXU2j8vfcUkHUOJ/JMySQtcVlhDAw4q/Hc+LSfHf/ChGyUy1UyqY4W7tWZ8x45ALbkzus3XJfOz74mTXw1UknXex2lTJ7asVKs/pKIWrChtWiiW3KFhNDBLF/9yCe/9rpBfle6YhoMbx7+XzWbToesMMtlnbHpmE8sOEiNi/rl8AtIENo4hNmNg+PGCLayZALZ0c78IsTq/DCYbHM4nY01WaXieDnrWvtnHeKPx+4Yc+jn16D9z6xTDpYYTpMttDtcHmy69CZWJCoCdNDau+9RbptCg1g79FxPPOXxxD2x6VXL7AGUkCrNRry48LoFWg5+MwxDfBH7Kj36Fi2JCKWO4ildVE47ZoSfSTmwtCUB1cCXpwd8mFK3lsn750vBz0Tp5ixlc0taPbVLciapYN5fqfLjk/8ySasu3UJB5RFgW4H47RCtOeCRU2UtQ4vzi5C4aCGf/jzwxg8H4TTXXgrPY0u/vWICPvy+Ciiee6WGYqkbiCfJ78q51T4sqZmLBVBc51HsaCwW7p8+Ox/vwX1TZkzQoWAhoqCzuZSrWwoSM1w50lH5rmLgsDC//Q7vejvCRRV0ISioTWkiFx5BoAUb6pHPvAceC48p2IKmtBaDp4L4kdfOymVnjxYRKidVLuX5ktBaoejoEt6WTGFxv39Th4awYFdA0Xxo1PBrAKt4tqWDpVpKBV0M3gOPJeFZjqyhXV8Yv8oDr0+oOq+WNBeFPoC74LVEKekXb6ENS0GXEb58jfPzbuWo9DQKtZ7fVjV3IbVS9uSRxePJTW12NK5Up1DsS30XLhFxi++fRETY8XL26psR4Hbs6C1xN7GHGOhoaU48Mt+TI5HCtqjc4Gps5baBmwWgXFFXLFPg9+xrqUTa5Z2wDPPTGcx8fsj2PvixaIE5LyQthgGquBdn8MJLXYhW31iNIp3XxlBJBRXQ3Ep4cKntSK0NS3tqPf48va3U8HP4ud3NjSp72gSK20vYXlZ13HNwKk3xzFw0V/QNnV6E1opBgUXNSuC+/A5Cxg4Hj9wBSNDwaJVQq7QajfX1Iuf244VzS1iweuVZWW6LVf4N/xbfgY/a0PbMixvainYpMpCoTs5OhjCqQNjBdv7j+m7hB9dnA5bkJReKpgWYppvoflrriD7yTfO4Oi+4aJnPPKFeW1O2ARiUcQ0DZquqWP+KLdVuJ46d2JFoNPuhIsXKYh1potR6lEoHbwqvfuWJdj5hfVoal3YbaK5RtrtK0w+Oh1FEzWhsLk+hFss5EvvkXG1pDTI5ZGLGCAuBK4h4dxhVASeCre6IMG2aJmMhcIO6nTa8bE/3IiNty9NHs0dWn0laF7NUsSmLGqtUoQsRL4F0LQ4LpyYwORw1DSCJhQrr6jxiUVO9eBrZhE04QgSCcZx7uQEopE8LZQ0n5oxLLKgSXFFLSfPYcZTl9/XREM6Th8ZK2hivkp+UIwnDkqwHuS+fbkP7jRuhc5Hp2NRzAXjJ3dNQuTZwvukjw6GceHYVFH9ryrZwTboPxNE/zl/ju2YyIYVago8GxZtDKS15dZRWU/OSB2cOz6m7lJVpTzgld09x0bkZ3aNyLbmyrvFFDRZNFHTL5teiZWNsDl7dkaCRLNtoGNlKM5TB8cZA8+LErQnkdpd7KzOoomaXBN2otCZYNL/7NuTauf4KuUBg/WBniAC/sx5WmrY6WEnWHxBk0UVNUkI25a8ZCd5MAUjgyGEJrWSVEqV9HD9/Nnj4+mNkjTXtR1KS9N2iy5qooQtbkW6rAgr7PSRURVxVykvqNO+XhlBuYF3CmisSiloUhJRT8OsiK+Bs0vJA0lYYaMDIamckp5elRSwTXrenbgurcf9M731IugySL+WXDVqgqZWLLfyvxLHeA1iz9sSkFQpOziKjvaHJea5lpVinOShO1kmE2RlYQq5ntbN1A8DSKkXBokjl8Kq91cpL5ivHu+Pqu3K2FYOCQinry0soccxi7IZ39nL6Yu5pMfHInH4h3m7ijKppSqziPp1jI+GVUDo9hR3cVI+lJXTOh1A1i914oFPLkdgZAEroaoUBbbJ7Y+3oXN1jcpileOanKKu0lsIbo8Db+4eUlshRIO62jCwmt4rDSoopEoMGz76n9bj3p1diMpoWq6UragJlztePD2FF795FmcOjSEW4/a8VXEvFhQz9cy7LdywuQGPfno1um9uKvsN28ta1IT6DU5p2PdiP/bvGkB/j18CSnvV314EuFtT6w01uO2+dtzzkWVoaObddZMvljFlL2pCYbMyz5+YxIGXhvDW6wMIjmvqMv4qhUeL6iq22XZ/B7Y/0i7WuVE9N4OgiSlEPQ3FHfJr6DkygVefvYSTB0bVZEB15rEw8L4wsYiBVeJq3P/UCmy6qxneGodpxDyNqUQ9DX09XkBwZO8I/u3/9mJsKFzyqVkzw/rk1nF1DS7s+NQq3PFwu7rTgFnr05Sinob7gQTGwvj59y/il/9yGXZ1TWiiOFWBZ2Z6mpv7HxpR4I6dHXjis92oX+KUQNC0klCYWtTTcJfOkcsRdUfbI6+NYGo8MePFK5er4p6NymiIkDlhUtfgxppbG/GBT6zGsrU16kZQVsASop6GAu7rCeDQLwdx5vA4Lp2egqZR3LZqtkRgAMjNcTrX1mHtlkbc+mAbVm9qUKlT1pNVsJSoFaJd7og/0h/G8f0jOHt0Ekd+Pax8cF6JUY4zYMWEwZ8mwR/3INx011Ks2dSE9dub0LmqNnEBhrVaX2E9USeh18EF7eFAXFlv3hfmoFjwkT4JKqWB1UaTFnVN6GLosUQmo6HFhVsfaMMt97SJi1GLmnqnqdJz+WBZUc+F/iInE868M4F9uy7j8E+H4aqxq3t3s5GtAFc3ahJLxII6uu9qwj2PL8em7c3w1jng4tr0ChmkKkbU0/BKaGZNpkZiOPSrQez7t8u4dCyglrnaeO8ese4zG78crfl05kK5DmpIkv+jBjq6a7D9kQ68Z0cXGttcKosxc91zpVBxop6Jy+1QjT4yEMapQ6Pig49hsMePsFi7aEhTrosSufjh0xsqlcIn5zmonczkJ2/tzHsf8txralxYusKLjXcswfpblqJ9pU9NRpX7PceLTUWLeibMjtAHD06EMdgXxaXTk7h8OoiJ4SiC/hj8U1FMDEVUBoGGkgby6kwmf1+g2Pnd00Eb9yDk7/wej7hIXvGD6xs8aGjyoL7ZjWXrfehcXY+uNXWobXSq7EVc/l51wCpVUaeC7gkFRT88OBVDYCqOyZEIRsWic18//3gME2MRRMSaX+kPqal7+uuRgAg+x3SChKsqK+MT4fLR0umDVyxwwxI3amqdqJNAb0mbB40tXjQ2u+Q9LuUfs1OZfZKkWFRFnQXKreY/onQtxillXQmegRkFzYmeUEB+hhmMRhGN2tQG8bS+dGNm4vY5lVX3+BxiYQ2xxG51BYmvzgW3BK28KSdF6+CaFnmfQ/x8u0N8H/ludrQq81MVdYG4Ou3MH/JQz9VPdfgqbq9D+bzTAej0/hnVmc9CAfx/Z0PfH2fCkBUAAAAASUVORK5CYII=;" vertex="1" parent="1">
                    <mxGeometry x="364" y="311.99998779296874" width="181" height="177" as="geometry"/>
                </mxCell>
                <mxCell id="10" value="&lt;h1&gt;Thinks&lt;/h1&gt;&lt;p&gt;Lorem ipsum dolor sit amet, consectetur adipisicing elit, sed do eiusmod tempor incididunt ut labore et dolore magna aliqua.&lt;/p&gt;" style="text;html=1;strokeColor=none;fillColor=#FFCC99;spacing=8;spacingTop=-20;whiteSpace=wrap;overflow=hidden;rounded=1;shadow=1;glass=0;fontColor=#333333;arcSize=8;" vertex="1" parent="1">
                    <mxGeometry x="40" y="181" width="190" height="120" as="geometry"/>
                </mxCell>
                <mxCell id="11" value="&lt;h1&gt;Feels&lt;/h1&gt;&lt;p&gt;Lorem ipsum dolor sit amet, consectetur adipisicing elit, sed do eiusmod tempor incididunt ut labore et dolore magna aliqua.&lt;/p&gt;" style="text;html=1;strokeColor=none;fillColor=#FFCC99;spacing=8;spacingTop=-20;whiteSpace=wrap;overflow=hidden;rounded=1;shadow=1;glass=0;fontColor=#333333;arcSize=8;" vertex="1" parent="1">
                    <mxGeometry x="632" y="181" width="190" height="120" as="geometry"/>
                </mxCell>
                <mxCell id="12" value="&lt;h1&gt;Says&lt;/h1&gt;&lt;p&gt;Lorem ipsum dolor sit amet, consectetur adipisicing elit, sed do eiusmod tempor incididunt ut labore et dolore magna aliqua.&lt;/p&gt;" style="text;html=1;strokeColor=none;fillColor=#FFCC99;spacing=8;spacingTop=-20;whiteSpace=wrap;overflow=hidden;rounded=1;shadow=1;glass=0;fontColor=#333333;arcSize=8;" vertex="1" parent="1">
                    <mxGeometry x="40" y="494" width="190" height="120" as="geometry"/>
                </mxCell>
                <mxCell id="14" value="&lt;h1&gt;Does&lt;/h1&gt;&lt;p&gt;Lorem ipsum dolor sit amet, consectetur adipisicing elit, sed do eiusmod tempor incididunt ut labore et dolore magna aliqua.&lt;/p&gt;" style="text;html=1;strokeColor=none;fillColor=#FFCC99;spacing=8;spacingTop=-20;whiteSpace=wrap;overflow=hidden;rounded=1;shadow=1;glass=0;fontColor=#333333;arcSize=8;" vertex="1" parent="1">
                    <mxGeometry x="632" y="494" width="190" height="120" as="geometry"/>
                </mxCell>
                <mxCell id="15" value="&lt;h1 style=&quot;color: rgb(51 , 51 , 51) ; font-family: &amp;#34;helvetica&amp;#34; ; font-style: normal ; letter-spacing: normal ; text-align: left ; text-indent: 0px ; text-transform: none ; word-spacing: 0px&quot;&gt;The user&amp;nbsp;&lt;/h1&gt;" style="text;whiteSpace=wrap;html=1;fontColor=#333333;fillColor=none;labelBackgroundColor=none;" vertex="1" parent="1">
                    <mxGeometry x="401" y="198" width="116" height="60" as="geometry"/>
                </mxCell>
            </root>
        </mxGraphModel>
    </diagram>
</mxfile>